<?xml version="1.0" encoding="UTF-8"?>
<!DOCTYPE svg PUBLIC "-//W3C//DTD SVG 1.1//EN" "http://www.w3.org/Graphics/SVG/1.1/DTD/svg11.dtd">
<svg xmlns="http://www.w3.org/2000/svg" version="1.1" width="500px" height="500px" style="shape-rendering:geometricPrecision; text-rendering:geometricPrecision; image-rendering:optimizeQuality; fill-rule:evenodd; clip-rule:evenodd" xmlns:xlink="http://www.w3.org/1999/xlink">
<g><path style="opacity:0.987" fill="#f4f4f4" d="M 262.5,168.5 C 262.833,170.833 264.167,172.167 266.5,172.5C 267.39,175.948 269.057,178.948 271.5,181.5C 273.264,185.205 274.431,189.205 275,193.5C 276.067,204.292 275.401,214.959 273,225.5C 271.967,228.784 270.467,231.784 268.5,234.5C 266.952,234.821 266.285,235.821 266.5,237.5C 263.286,241.88 259.286,245.38 254.5,248C 258.982,252.316 263.315,256.816 267.5,261.5C 268.477,264.989 270.477,267.823 273.5,270C 265.507,270.5 257.507,270.666 249.5,270.5C 244.066,264.498 238.733,258.332 233.5,252C 219.887,252.564 208.387,248.064 199,238.5C 197.223,235.941 195.723,233.274 194.5,230.5C 194.472,227.084 193.472,224.084 191.5,221.5C 191.975,218.918 191.308,216.918 189.5,215.5C 185.47,173.028 204.47,154.528 246.5,160C 252.626,161.56 257.959,164.393 262.5,168.5 Z M 251.5,188.5 C 251.721,191.067 252.388,193.401 253.5,195.5C 254.561,206.247 253.061,216.58 249,226.5C 238,237.167 227,237.167 216,226.5C 209.052,212.702 208.719,198.702 215,184.5C 224.203,174.361 234.703,172.861 246.5,180C 248.585,182.682 250.252,185.516 251.5,188.5 Z"/></g>
<g><path style="opacity:0.987" fill="#f4f4f4" d="M 147.5,192.5 C 151.678,196.426 156.678,199.093 162.5,200.5C 168.855,203.522 173.522,208.188 176.5,214.5C 177.833,221.167 177.833,227.833 176.5,234.5C 174.113,241.39 169.446,246.223 162.5,249C 148.017,252.682 133.85,251.848 120,246.5C 119.333,239.833 119.333,233.167 120,226.5C 128.268,230.866 137.102,233.532 146.5,234.5C 159.497,233.139 161.83,227.639 153.5,218C 145.922,213.809 138.256,209.809 130.5,206C 119.421,194.938 117.588,182.438 125,168.5C 132.126,161.376 140.792,158.043 151,158.5C 160.808,158.771 169.975,161.271 178.5,166C 176.371,170.426 174.371,174.926 172.5,179.5C 171.833,179.833 171.167,180.167 170.5,180.5C 162.144,176.402 153.477,175.235 144.5,177C 138.646,183.369 139.646,188.535 147.5,192.5 Z"/></g>
<g><path style="opacity:0.972" fill="#f0f0f0" d="M 312.5,232.5 C 311.957,232.56 311.624,232.893 311.5,233.5C 323.482,234.499 335.482,234.832 347.5,234.5C 347.5,239.5 347.5,244.5 347.5,249.5C 328.833,249.5 310.167,249.5 291.5,249.5C 291.333,219.831 291.5,190.165 292,160.5C 298.744,159.521 305.578,159.188 312.5,159.5C 312.526,184.08 312.526,208.413 312.5,232.5 Z"/></g>
<g><path style="opacity:0.498" fill="#5d5d5d" d="M 262.5,168.5 C 264.167,169.5 265.5,170.833 266.5,172.5C 264.167,172.167 262.833,170.833 262.5,168.5 Z"/></g>
<g><path style="opacity:0.188" fill="#696969" d="M 266.5,172.5 C 268.924,175.008 270.59,178.008 271.5,181.5C 269.057,178.948 267.39,175.948 266.5,172.5 Z"/></g>
<g><path style="opacity:0.075" fill="#222222" d="M 251.5,188.5 C 253.163,190.438 253.829,192.772 253.5,195.5C 252.388,193.401 251.721,191.067 251.5,188.5 Z"/></g>
<g><path style="opacity:0.153" fill="#999999" d="M 147.5,192.5 C 152.693,194.928 157.693,197.595 162.5,200.5C 156.678,199.093 151.678,196.426 147.5,192.5 Z"/></g>
<g><path style="opacity:0.659" fill="#acacac" d="M 176.5,214.5 C 178.019,217.526 178.685,220.859 178.5,224.5C 178.685,228.141 178.019,231.474 176.5,234.5C 177.833,227.833 177.833,221.167 176.5,214.5 Z"/></g>
<g><path style="opacity:0.404" fill="#969696" d="M 189.5,215.5 C 191.308,216.918 191.975,218.918 191.5,221.5C 190.715,219.626 190.048,217.626 189.5,215.5 Z"/></g>
<g><path style="opacity:0.518" fill="#959595" d="M 191.5,221.5 C 193.472,224.084 194.472,227.084 194.5,230.5C 192.928,227.785 191.928,224.785 191.5,221.5 Z"/></g>
<g><path style="opacity:0.6" fill="#9d9d9d" d="M 312.5,232.5 C 324.322,233.495 336.322,233.828 348.5,233.5C 348.821,239.026 348.488,244.36 347.5,249.5C 347.5,244.5 347.5,239.5 347.5,234.5C 335.482,234.832 323.482,234.499 311.5,233.5C 311.624,232.893 311.957,232.56 312.5,232.5 Z"/></g>
<g><path style="opacity:0.125" fill="#656565" d="M 268.5,234.5 C 268.068,235.71 267.401,236.71 266.5,237.5C 266.285,235.821 266.952,234.821 268.5,234.5 Z"/></g>
<g><path style="opacity:0.98" fill="#f3f3f3" d="M 105.5,257.5 C 106.78,258.931 108.447,259.598 110.5,259.5C 111.806,260.467 112.473,261.801 112.5,263.5C 112.598,265.553 111.931,267.22 110.5,268.5C 108.707,270.426 107.707,272.759 107.5,275.5C 106.167,275.5 104.833,275.5 103.5,275.5C 101.597,275.204 99.9303,274.537 98.5,273.5C 96.1617,271.96 93.4951,271.294 90.5,271.5C 87.8333,271.5 85.1667,271.5 82.5,271.5C 80.8212,271.285 79.8212,271.952 79.5,273.5C 78.5,273.833 77.8333,274.5 77.5,275.5C 76.2521,276.334 75.5854,277.667 75.5,279.5C 75.5108,281.045 75.8442,282.378 76.5,283.5C 81.8137,288.836 88.1471,292.503 95.5,294.5C 95.8212,296.048 96.8212,296.715 98.5,296.5C 99.4916,296.328 100.158,296.662 100.5,297.5C 100.821,299.048 101.821,299.715 103.5,299.5C 103.833,301.833 105.167,303.167 107.5,303.5C 108.08,305.749 109.413,307.415 111.5,308.5C 118.132,327.402 111.798,339.902 92.5,346C 79.2484,348.426 66.5818,346.926 54.5,341.5C 55.1667,335.5 55.8333,329.5 56.5,323.5C 64.4128,327.229 72.7461,329.562 81.5,330.5C 86.6733,330.57 90.6733,328.57 93.5,324.5C 95.1819,317.79 92.5153,313.457 85.5,311.5C 78.4451,308.805 71.7784,305.305 65.5,301C 62.5766,298.584 60.2433,295.75 58.5,292.5C 56.8173,286.302 56.1506,279.969 56.5,273.5C 56.2594,271.102 56.9261,269.102 58.5,267.5C 61.8333,264.833 64.8333,261.833 67.5,258.5C 79.978,252.184 92.6447,251.851 105.5,257.5 Z"/></g>
<g><path style="opacity:0.137" fill="#414141" d="M 105.5,257.5 C 107.553,257.402 109.22,258.069 110.5,259.5C 108.447,259.598 106.78,258.931 105.5,257.5 Z"/></g>
<g><path style="opacity:0.157" fill="#3d3d3d" d="M 110.5,259.5 C 111.5,259.5 112.5,259.5 113.5,259.5C 113.768,261.099 113.434,262.432 112.5,263.5C 112.473,261.801 111.806,260.467 110.5,259.5 Z"/></g>
<g><path style="opacity:0.522" fill="#737373" d="M 67.5,258.5 C 64.8333,261.833 61.8333,264.833 58.5,267.5C 60.5,263.5 63.5,260.5 67.5,258.5 Z"/></g>
<g><path style="opacity:0.348" fill="#7b7b7b" d="M 267.5,261.5 C 270.116,264.455 272.782,267.455 275.5,270.5C 266.675,271.821 258.009,271.821 249.5,270.5C 257.507,270.666 265.507,270.5 273.5,270C 270.477,267.823 268.477,264.989 267.5,261.5 Z"/></g>
<g><path style="opacity:0.196" fill="#5c5c5c" d="M 82.5,271.5 C 81.7095,272.401 80.7095,273.068 79.5,273.5C 79.8212,271.952 80.8212,271.285 82.5,271.5 Z"/></g>
<g><path style="opacity:0.337" fill="#6a6a6a" d="M 90.5,271.5 C 93.4951,271.294 96.1617,271.96 98.5,273.5C 95.5718,273.435 92.9052,272.768 90.5,271.5 Z"/></g>
<g><path style="opacity:0.171" fill="#5e5e5e" d="M 110.5,268.5 C 109.833,271.167 109.167,273.833 108.5,276.5C 106.585,276.784 104.919,276.451 103.5,275.5C 104.833,275.5 106.167,275.5 107.5,275.5C 107.707,272.759 108.707,270.426 110.5,268.5 Z"/></g>
<g><path style="opacity:0.536" fill="#999999" d="M 146.5,276.5 C 152.653,275.347 158.986,275.18 165.5,276C 166.737,276.232 167.737,276.732 168.5,277.5C 161.201,276.65 153.868,276.317 146.5,276.5 Z"/></g>
<g><path style="opacity:0.008" fill="#111111" d="M 246.5,275.5 C 247.167,275.5 247.5,275.833 247.5,276.5C 247.833,277.167 248.167,277.833 248.5,278.5C 247.833,278.5 247.167,278.5 246.5,278.5C 246.5,277.5 246.5,276.5 246.5,275.5 Z"/></g>
<g><path style="opacity:0.586" fill="#848484" d="M 446.5,288.5 C 446.5,284.5 446.5,280.5 446.5,276.5C 441.463,276.413 436.463,276.746 431.5,277.5C 431.918,276.778 432.584,276.278 433.5,276C 438.155,275.501 442.821,275.334 447.5,275.5C 447.818,280.032 447.485,284.366 446.5,288.5 Z"/></g>
<g><path style="opacity:0.984" fill="#f5f5f5" d="M 146.5,276.5 C 153.868,276.317 161.201,276.65 168.5,277.5C 175.696,279.366 180.696,283.7 183.5,290.5C 185.963,298.635 186.963,306.968 186.5,315.5C 171.833,315.5 157.167,315.5 142.5,315.5C 142.232,317.099 142.566,318.432 143.5,319.5C 148.436,331.102 157.102,334.935 169.5,331C 174.01,329.997 178.343,328.497 182.5,326.5C 183.833,331.833 183.833,337.167 182.5,342.5C 166.561,349.64 150.894,349.14 135.5,341C 128.4,335.965 124.567,329.131 124,320.5C 122.989,311.029 123.656,301.696 126,292.5C 127.03,290.654 128.196,288.987 129.5,287.5C 131.048,287.179 131.715,286.179 131.5,284.5C 135.453,280.021 140.453,277.355 146.5,276.5 Z M 167.5,299.5 C 167.5,300.5 167.5,301.5 167.5,302.5C 159.648,302.825 151.982,302.492 144.5,301.5C 146.897,290.967 153.23,287.801 163.5,292C 165.496,294.162 166.83,296.662 167.5,299.5 Z"/></g>
<g><path style="opacity:0.46" fill="#a3a3a3" d="M 201.5,277.5 C 206.305,276.513 211.305,276.179 216.5,276.5C 216.5,277.5 216.5,278.5 216.5,279.5C 211.807,277.64 206.807,276.974 201.5,277.5 Z"/></g>
<g><path style="opacity:0.99" fill="#f8f8f8" d="M 246.5,275.5 C 246.5,276.5 246.5,277.5 246.5,278.5C 246.676,283.88 246.342,289.213 245.5,294.5C 232.188,291.642 223.855,296.642 220.5,309.5C 219.505,320.988 219.172,332.655 219.5,344.5C 213.31,344.177 207.31,344.51 201.5,345.5C 201.452,323.042 201.452,300.375 201.5,277.5C 206.807,276.974 211.807,277.64 216.5,279.5C 217.458,281.302 218.125,283.302 218.5,285.5C 217.596,286.209 217.263,287.209 217.5,288.5C 218.833,288.5 220.167,288.5 221.5,288.5C 221.421,287.07 221.754,285.736 222.5,284.5C 224.854,282.812 226.854,280.812 228.5,278.5C 229.6,277.442 230.934,276.608 232.5,276C 237.155,275.501 241.821,275.334 246.5,275.5 Z"/></g>
<g><path style="opacity:0.465" fill="#868686" d="M 317.5,283.5 C 317.833,281.5 318.167,279.5 318.5,277.5C 311.745,277.207 305.078,277.54 298.5,278.5C 301.768,277.178 305.435,276.511 309.5,276.5C 313.167,276.833 316.833,277.167 320.5,277.5C 319.864,279.78 318.864,281.78 317.5,283.5 Z"/></g>
<g><path style="opacity:0.987" fill="#f7f7f7" d="M 375.5,280.5 C 381.353,283.863 385.019,288.863 386.5,295.5C 387.212,302.143 387.546,308.809 387.5,315.5C 372.99,315.171 358.657,315.504 344.5,316.5C 345.619,326.618 351.285,331.951 361.5,332.5C 369.224,331.925 376.557,329.925 383.5,326.5C 384.833,331.833 384.833,337.167 383.5,342.5C 380.397,344.312 377.064,345.312 373.5,345.5C 367.178,346.014 360.845,346.347 354.5,346.5C 342.576,346.216 333.909,340.882 328.5,330.5C 325.412,319.668 324.745,308.668 326.5,297.5C 328.26,290.552 331.926,284.719 337.5,280C 338.745,279.209 340.078,278.709 341.5,278.5C 353.11,275.301 364.443,275.967 375.5,280.5 Z M 352.5,290.5 C 362.647,288.409 368.314,292.409 369.5,302.5C 361.5,302.5 353.5,302.5 345.5,302.5C 345.377,296.979 347.71,292.979 352.5,290.5 Z"/></g>
<g><path style="opacity:0.984" fill="#fafafa" d="M 446.5,288.5 C 446.5,290.5 446.5,292.5 446.5,294.5C 437.487,292.29 429.987,294.623 424,301.5C 423.027,303.392 422.36,305.392 422,307.5C 421.5,319.829 421.333,332.162 421.5,344.5C 415.167,344.5 408.833,344.5 402.5,344.5C 402.5,322.167 402.5,299.833 402.5,277.5C 407.5,277.5 412.5,277.5 417.5,277.5C 417.747,280.854 418.747,283.854 420.5,286.5C 422.048,286.179 422.715,285.179 422.5,283.5C 424.951,280.723 427.951,278.723 431.5,277.5C 436.463,276.746 441.463,276.413 446.5,276.5C 446.5,280.5 446.5,284.5 446.5,288.5 Z"/></g>
<g><path style="opacity:0.982" fill="#f2f2f2" d="M 247.5,276.5 C 254.508,276.334 261.508,276.5 268.5,277C 270.668,282.003 272.334,287.17 273.5,292.5C 274.731,298.532 276.731,304.199 279.5,309.5C 279.054,312.01 279.72,314.01 281.5,315.5C 282.887,317.877 283.721,320.543 284,323.5C 288.368,308.232 293.202,293.232 298.5,278.5C 305.078,277.54 311.745,277.207 318.5,277.5C 318.167,279.5 317.833,281.5 317.5,283.5C 316.069,284.78 315.402,286.447 315.5,288.5C 311.4,300.812 306.734,312.812 301.5,324.5C 299.733,326.792 298.733,329.458 298.5,332.5C 297.252,336.829 295.586,340.996 293.5,345C 286.833,345.667 280.167,345.667 273.5,345C 271.204,339.944 269.204,334.778 267.5,329.5C 266.63,324.777 264.964,320.444 262.5,316.5C 262.598,314.447 261.931,312.78 260.5,311.5C 255.695,300.871 251.695,289.871 248.5,278.5C 248.167,277.833 247.833,277.167 247.5,276.5 Z"/></g>
<g><path style="opacity:0.345" fill="#929292" d="M 375.5,280.5 C 364.443,275.967 353.11,275.301 341.5,278.5C 343.277,277.4 345.277,276.566 347.5,276C 353.833,275.333 360.167,275.333 366.5,276C 370.11,276.472 373.11,277.972 375.5,280.5 Z"/></g>
<g><path style="opacity:0.125" fill="#292929" d="M 77.5,275.5 C 76.612,278.054 76.2786,280.721 76.5,283.5C 75.8442,282.378 75.5108,281.045 75.5,279.5C 75.5854,277.667 76.2521,276.334 77.5,275.5 Z"/></g>
<g><path style="opacity:0.561" fill="#6a6a6a" d="M 422.5,283.5 C 422.715,285.179 422.048,286.179 420.5,286.5C 420.932,285.29 421.599,284.29 422.5,283.5 Z"/></g>
<g><path style="opacity:0.604" fill="#6c6c6c" d="M 131.5,284.5 C 131.715,286.179 131.048,287.179 129.5,287.5C 129.932,286.29 130.599,285.29 131.5,284.5 Z"/></g>
<g><path style="opacity:0.949" fill="#b7b7b7" d="M 228.5,278.5 C 226.854,280.812 224.854,282.812 222.5,284.5C 221.754,285.736 221.421,287.07 221.5,288.5C 220.167,288.5 218.833,288.5 217.5,288.5C 217.263,287.209 217.596,286.209 218.5,285.5C 218.369,286.239 218.536,286.906 219,287.5C 221.246,283.472 224.413,280.472 228.5,278.5 Z"/></g>
<g><path style="opacity:0.22" fill="#636363" d="M 317.5,283.5 C 317.598,285.553 316.931,287.22 315.5,288.5C 315.402,286.447 316.069,284.78 317.5,283.5 Z"/></g>
<g><path style="opacity:0.271" fill="#515151" d="M 56.5,273.5 C 56.1506,279.969 56.8173,286.302 58.5,292.5C 57.207,291.158 56.3736,289.491 56,287.5C 55.1849,282.648 55.3516,277.981 56.5,273.5 Z"/></g>
<g><path style="opacity:0.024" fill="#404040" d="M 95.5,294.5 C 96.7095,294.932 97.7095,295.599 98.5,296.5C 96.8212,296.715 95.8212,296.048 95.5,294.5 Z"/></g>
<g><path style="opacity:0.016" fill="#303030" d="M 100.5,297.5 C 101.71,297.932 102.71,298.599 103.5,299.5C 101.821,299.715 100.821,299.048 100.5,297.5 Z"/></g>
<g><path style="opacity:0.337" fill="#5e5e5e" d="M 103.5,299.5 C 105.167,300.5 106.5,301.833 107.5,303.5C 105.167,303.167 103.833,301.833 103.5,299.5 Z"/></g>
<g><path style="opacity:0.22" fill="#454545" d="M 167.5,299.5 C 168.434,300.568 168.768,301.901 168.5,303.5C 160.14,303.831 151.807,303.498 143.5,302.5C 143.624,301.893 143.957,301.56 144.5,301.5C 151.982,302.492 159.648,302.825 167.5,302.5C 167.5,301.5 167.5,300.5 167.5,299.5 Z"/></g>
<g><path style="opacity:0.437" fill="#b7b7b7" d="M 326.5,297.5 C 324.745,308.668 325.412,319.668 328.5,330.5C 326.469,327.578 325.302,324.245 325,320.5C 324.333,314.167 324.333,307.833 325,301.5C 325.21,299.942 325.71,298.609 326.5,297.5 Z"/></g>
<g><path style="opacity:0.236" fill="#8b8b8b" d="M 386.5,295.5 C 387.302,296.952 387.802,298.618 388,300.5C 388.499,305.823 388.666,311.156 388.5,316.5C 373.833,316.5 359.167,316.5 344.5,316.5C 358.657,315.504 372.99,315.171 387.5,315.5C 387.546,308.809 387.212,302.143 386.5,295.5 Z"/></g>
<g><path style="opacity:0.463" fill="#646464" d="M 107.5,303.5 C 109.587,304.585 110.92,306.251 111.5,308.5C 109.413,307.415 108.08,305.749 107.5,303.5 Z"/></g>
<g><path style="opacity:0.102" fill="#4b4b4b" d="M 273.5,292.5 C 276.269,297.801 278.269,303.468 279.5,309.5C 276.731,304.199 274.731,298.532 273.5,292.5 Z"/></g>
<g><path style="opacity:0.683" fill="#b1b1b1" d="M 220.5,309.5 C 220.5,321.5 220.5,333.5 220.5,345.5C 214.167,345.5 207.833,345.5 201.5,345.5C 207.31,344.51 213.31,344.177 219.5,344.5C 219.172,332.655 219.505,320.988 220.5,309.5 Z"/></g>
<g><path style="opacity:0.194" fill="#a8a8a8" d="M 417.5,277.5 C 412.5,277.5 407.5,277.5 402.5,277.5C 402.5,299.833 402.5,322.167 402.5,344.5C 408.833,344.5 415.167,344.5 421.5,344.5C 415.021,345.491 408.354,345.824 401.5,345.5C 401.5,322.5 401.5,299.5 401.5,276.5C 407.026,276.179 412.36,276.512 417.5,277.5 Z"/></g>
<g><path style="opacity:0.129" fill="#505050" d="M 85.5,311.5 C 92.5153,313.457 95.1819,317.79 93.5,324.5C 93.7022,322.011 93.2022,319.677 92,317.5C 89.9373,315.266 87.7706,313.266 85.5,311.5 Z"/></g>
<g><path style="opacity:0.596" fill="#7e7e7e" d="M 279.5,309.5 C 280.738,311.214 281.405,313.214 281.5,315.5C 279.72,314.01 279.054,312.01 279.5,309.5 Z"/></g>
<g><path style="opacity:0.161" fill="#545454" d="M 260.5,311.5 C 261.931,312.78 262.598,314.447 262.5,316.5C 261.069,315.22 260.402,313.553 260.5,311.5 Z"/></g>
<g><path style="opacity:0.369" fill="#6c6c6c" d="M 183.5,290.5 C 185.531,293.422 186.698,296.755 187,300.5C 187.499,305.823 187.666,311.156 187.5,316.5C 172.833,316.5 158.167,316.5 143.5,316.5C 143.5,317.5 143.5,318.5 143.5,319.5C 142.566,318.432 142.232,317.099 142.5,315.5C 157.167,315.5 171.833,315.5 186.5,315.5C 186.963,306.968 185.963,298.635 183.5,290.5 Z"/></g>
<g><path style="opacity:0.247" fill="#585858" d="M 262.5,316.5 C 264.964,320.444 266.63,324.777 267.5,329.5C 265.036,325.556 263.37,321.223 262.5,316.5 Z"/></g>
<g><path style="opacity:0.316" fill="#585858" d="M 56.5,323.5 C 55.8333,329.5 55.1667,335.5 54.5,341.5C 54.1703,335.132 54.5037,328.798 55.5,322.5C 56.1067,322.624 56.44,322.957 56.5,323.5 Z"/></g>
<g><path style="opacity:0.263" fill="#989898" d="M 301.5,324.5 C 301.267,327.542 300.267,330.208 298.5,332.5C 298.733,329.458 299.733,326.792 301.5,324.5 Z"/></g>
<g><path style="opacity:0.114" fill="#a0a0a0" d="M 373.5,345.5 C 367.224,347.44 360.891,347.774 354.5,346.5C 360.845,346.347 367.178,346.014 373.5,345.5 Z"/></g>
</svg>
